<svg id="Layer_1" data-name="Layer 1" xmlns="http://www.w3.org/2000/svg" viewBox="0 0 163.18 40.37"><defs><style>.cls-1{fill:#003256;}</style></defs><title>izeni-logo-no-bg</title><path class="cls-1" d="M4.58,6.13S5.05,4,5.19,3.07,5.52,0,5.52,0s5.62,0.3,8,.3,8-.3,8-0.3S21.1,2.14,21,3.07s-0.33,3.07-.33,3.07-5.62-.27-8-0.27-8,.27-8,0.27m15.88,2.3a122,122,0,0,0-2.75,13c-0.64,4.38-.93,8.78-1.29,13.19H0c1.05-4.31,2-8.66,2.68-13S3.64,12.84,4,8.43c0,0,5.76.3,8.23,0.3s8.22-.3,8.22-0.3M23.9,8l-1.11,7.31c5.8-.25,11.6-0.13,17.4-0.16A98.31,98.31,0,0,1,20.12,27.06L19,34.65c25.05-1.32,47,11.93,62.59,2-10.36.44-18.67,0.3-24-10.24-12.21,1.56-14,1.42-18.49,1a148,148,0,0,1,19.41-11.4L59.8,8s-12.56.82-18,.82S23.9,8,23.9,8h0Zm76.58,26.62q1.46-6.21,2.48-12.86T104.52,8s5.3,0.43,7.57.43S119.66,8,119.66,8l-0.25,3.3c7-4.93,13.68-7.3,18.77-2s0.41,12.25.56,25.37H122.63c2-6.69,5.83-17.84,1.74-18.69-5.27-1.11-7.25,2.54-7.95,18.69H100.48Zm45.7-28.52s0.47-2.15.61-3.07S147.12,0,147.12,0s5.62,0.3,8,.3,8-.3,8-0.3-0.47,2.14-.61,3.07-0.33,3.07-.33,3.07-5.62-.27-8-0.27-8,.27-8,0.27h0Zm15.88,2.3a120.81,120.81,0,0,0-2.76,13c-0.64,4.38-.93,8.78-1.29,13.19H141.6c1.05-4.31,2-8.66,2.68-13s1-8.78,1.33-13.18c0,0,5.76.3,8.23,0.3s8.23-.3,8.23-0.3h0ZM76.47,17.22H87.11c0.2-3.05-1.5-4.2-4.27-4.62a6.39,6.39,0,0,0-6.36,4.62h0ZM94.61,33.55a109.64,109.64,0,0,1-14.44,1.1c-9.06,0-20.5-1.87-20.69-12.88C61,9.5,73.54,6.94,83.93,6.54c11.62,0.28,20.16,2,16.71,15.84L76,22.41c-0.46,1.91.54,3.07,2.06,4.06,6,1.82,14.66-.42,20-2.3l-3.46,9.38h0Z"/></svg>